<svg xmlns="http://www.w3.org/2000/svg" viewBox="0 0 225 225"><path fill="#F2F3F5" d="M0 0h225v225H0V0Z"/><path fill="#F1F2F4" d="m73.675 82.7913 2.4002-.0297c2.6273-.03 5.2545-.0513 7.8818-.0702l2.717-.02c4.7454-.0325 9.4909-.057 14.2364-.0764 3.9297-.0178 7.8587-.0527 11.788-.1026 4.7422-.0601 9.4837-.0909 14.2262-.1006a471.947 471.947 0 0 0 5.4218-.0567c2.531-.039 5.0592-.04 7.5904-.0321l2.2595-.0606c4.1069.0573 5.6679.6364 8.7672 3.403 2.2136 3.6463 2.668 5.5068 2.6835 9.7237l.0477 3.7621c-.009 1.3417-.0192 2.6834-.0306 4.025.0033 1.3896.0082 2.7791.0145 4.1686a822.5298 822.5298 0 0 1-.0267 8.7148c-.0285 3.7126-.0121 7.4234.0178 11.136.0181 2.8672.0123 5.734-.0006 8.6013a374.1239 374.1239 0 0 0 .0124 4.1048c.0128 1.9164-.0102 3.8329-.0345 5.7492l-.012 3.2962c-.8821 4.2688-2.395 6.1778-5.635 9.0729-2.9728.609-5.1397.8244-8.1074.7764l-2.431.0318c-2.6443.0264-5.2861.009-7.9304-.0113-1.8417.004-3.6835.0098-5.5252.0174-3.857.0088-7.7131-.004-11.57-.032-4.9403-.0343-9.8786-.0146-14.8188.0214-3.8023.0217-7.6041.0147-11.4064-.0008a553.4003 553.4003 0 0 0-5.4637.0149c-2.5477.0152-5.0922-.008-7.6397-.0414l-2.2736.0368c-4.107-.0996-5.7023-.6958-8.801-3.4627-2.2158-3.6522-2.6602-5.5118-2.6639-9.7355l-.038-3.7719c.0123-1.3448.0257-2.6897.0402-4.0345-.0008-1.392-.0033-2.7839-.0073-4.1758-.0029-2.9094.0118-5.818.0393-8.7273.034-3.7215.028-7.4416.0093-11.1632-.0106-2.8715-.0016-5.7426.0134-8.614a493.9775 493.9775 0 0 0-.0015-4.1157c-.0055-1.919.0178-3.838.0423-5.757l.0187-3.303C60.1197 88.3131 61.4617 86.6352 64 84c3.0713-1.5356 6.3028-1.1826 9.675-1.2087Z"/><path fill="#BCC1CC" d="m73.675 82.7913 2.4002-.0297c2.6273-.03 5.2545-.0513 7.8818-.0702l2.717-.02c4.7454-.0325 9.4909-.057 14.2364-.0764 3.9297-.0178 7.8587-.0527 11.788-.1026 4.7422-.0601 9.4837-.0909 14.2262-.1006a471.947 471.947 0 0 0 5.4218-.0567c2.531-.039 5.0592-.04 7.5904-.0321l2.2595-.0606c4.1069.0573 5.6679.6364 8.7672 3.403 2.2136 3.6463 2.668 5.5068 2.6835 9.7237l.0477 3.7621c-.009 1.3417-.0192 2.6834-.0306 4.025.0033 1.3896.0082 2.7791.0145 4.1686a822.5298 822.5298 0 0 1-.0267 8.7148c-.0285 3.7126-.0121 7.4234.0178 11.136.0181 2.8672.0123 5.734-.0006 8.6013a374.1239 374.1239 0 0 0 .0124 4.1048c.0128 1.9164-.0102 3.8329-.0345 5.7492l-.012 3.2962c-.8821 4.2688-2.395 6.1778-5.635 9.0729-2.9728.609-5.1397.8244-8.1074.7764l-2.431.0318c-2.6443.0264-5.2861.009-7.9304-.0113-1.8417.004-3.6835.0098-5.5252.0174-3.857.0088-7.7131-.004-11.57-.032-4.9403-.0343-9.8786-.0146-14.8188.0214-3.8023.0217-7.6041.0147-11.4064-.0008a553.4003 553.4003 0 0 0-5.4637.0149c-2.5477.0152-5.0922-.008-7.6397-.0414l-2.2736.0368c-4.107-.0996-5.7023-.6958-8.801-3.4627-2.2158-3.6522-2.6602-5.5118-2.6639-9.7355l-.038-3.7719c.0123-1.3448.0257-2.6897.0402-4.0345-.0008-1.392-.0033-2.7839-.0073-4.1758-.0029-2.9094.0118-5.818.0393-8.7273.034-3.7215.028-7.4416.0093-11.1632-.0106-2.8715-.0016-5.7426.0134-8.614a493.9775 493.9775 0 0 0-.0015-4.1157c-.0055-1.919.0178-3.838.0423-5.757l.0187-3.303C60.1197 88.3131 61.4617 86.6352 64 84c3.0713-1.5356 6.3028-1.1826 9.675-1.2087ZM66 90v61h81V90H66Z"/><path fill="#B9BECA" d="M119 104c4.9587 2.4793 8.636 5.5726 12.75 9.25.7928.6175 1.5855 1.235 2.4023 1.871 2.2696 2.0821 2.2696 2.0821 5.8477 7.879v22H72c0-9 0-9 1.377-11.3987l1.9043-1.7615 2.0507-1.9628 2.168-1.9395 2.168-2.045A304.8391 304.8391 0 0 1 87 121c3.6381 1.617 5.693 3.3544 9 6l23-23ZM85 96c2.875 1.5625 2.875 1.5625 5 4 1.1489 3.9493 1.4313 6.0296-.25 9.8125-2.4963 3.1204-4.1479 4.1094-8.125 4.625C78 114 78 114 75.0625 112c-2.2934-3.3359-2.8207-5.0998-2.543-9.0625C74.1272 96.4545 79.019 95.0388 85 96Z"/></svg>