<svg xmlns="http://www.w3.org/2000/svg" viewBox="0 0 551 394"><path fill="#f18311" d="M280 1.5c.6-2 7.3-1.5 14.8-1.5 8.2 0 16.8 0 16.8 1.2.1 1.1-.2 4.8-.7 8.6l-.3 2.2c-1.3 9.3-2.9 18.6-4.5 28l-.9 5.4-3.5 20.5-.5 2.3-.7 4.3c-1 5-1.2 9.5-1 14.5l2.8.4a106 106 0 0 1 41.8 17c2.2 1.8 2.2 1.8 4.5 1.6l3-4.1 8.6-12.5 11.4-15.9c10.1-14.4 10.1-14.4 14.8-20.8a721.8 721.8 0 0 0 6-8.6l2.2-3 2-2.1c9.9 0 22.2 16.2 29.1 23 11.9 11.9 11.9 11.9 14.9 17-.3 2.8-.2 2.9-1.3 4.7-1 1.2-2.7 2.3-2.7 2.3l-3.7 2.7-2.3 1.5L428 92a465 465 0 0 0-18 12.7l-18.4 13.1c-5 3.6-10 7.2-15 11-2 1.3-2.4 1.7-3 2.6-.7 1.4 2.4 6.5 4.8 10.3a110.9 110.9 0 0 1 14.2 38.4 237.6 237.6 0 0 0 35.1-4.5 5243.7 5243.7 0 0 0 33.8-6l3.4-.6 2.9-.5c3-.4 5.8-.5 8.8-.4 6.3 17.2 4.6 43.2 1 61-10.3-.6-20.3-2-30.5-3.7l-4.8-.8-21.5-3.6-6.3-1.1-7.7-1.3-3.5-.6-3-.5a48 48 0 0 0-7.7-.4l-.9 3.6c-4 16.4-9.9 30.3-19.1 44.4 3.7 4 7.6 7 12.1 10 6 4 12 8.2 17.8 12.4l18 13c6.4 4.4 12.7 9 19 13.6-.4 5.2-2 7.9-5.4 11.9l-2.4 3c-4 4.2-7.9 8.3-12 12.3l-1.8 1.7c-13.8 13.5-17.9 17.3-21.7 16.3l-1.6-2.2-2-3-2.8-3.7-1.6-2.4-1.7-2.6A315 315 0 0 0 375 329c-3.9-5-7.4-10.2-11-15.4a363.4 363.4 0 0 0-16.5-22.6c-3.7 1.3-6.7 3-10 5.3-11 7-26.7 13.7-40 13.7l2.6 16.3.4 2.5c1.5 9.4 3 18.7 4.7 28l.4 2.4a2727.6 2727.6 0 0 0 2.7 15.3l.6 3.5c.7 5.3 1.1 10.7 1.6 16h-30s-1.3-391-.7-392.5z"/><path fill="#2da1d8" d="M256.5 0h4.9c2 .2 5.8-.8 5.9 2.8 0 2.7-.3 255.1-.2 385.7 0 .4.2 3.8-1 5-.7.8-3.5.4-6.2.5-2.8.1-5.4.2-6-.7-1.7-2-.4-24.3-.4-24.3s-12.5 9.8-19.8 12.6c-1.8.6-1.6 1-3.2-.6-.5-.5-1.7-2 .2-4.3a41 41 0 0 1 7.4-7l2.4-1.8 2.4-1.7 2.2-1.6c2.4-1.6 2.4-1.6 5.6-3.3 3.1-2.1 3.1-2.1 3.4-6 0-11.8.1-24.8.4-36.2-14 9.3-27 20.4-42 28.4-2.3 1.3-4.8 3.5-7.6 3.2a5.1 5.1 0 0 1-4-2.8c-.7-1.8 0-4.2 1-5.8 9.3-14.2 21.3-14.3 42.7-27.6 3.4-2.2 6.8-4.7 8.9-8.5.5-14.1.5-22 1-31-8.2 4.6-8.2 4.6-15.9 10-6.7 4.6-6.8 4.7-9 1.8-2.4-3.3-2.4-3.4.9-5.8 3.2-2.4 6.5-4.2 10-6 1.7-1 3.4-2.2 5-3.3l2.3-1.4 5.7-4.3v-2c.6-18.3.5-38.4 1-57l-3 1.6-1.9 1.1-4.3 2.4-13 7.4a1972.9 1972.9 0 0 0-13.5 7.5l-3.3 1.8-2.9 1.6c-2.6 1.9-2.6 2.5-3.1 5.6l-.5 6-.3 3.5-.5 7.3-.2 3.4-.2 3.2c-.2 2.6.4 3.2-1.3 4.6-1.4 1-3.5.6-5 0-1.3-.5-1.2-1-1-3.3v-3l.2-3.2.1-3.5.2-3.4c.3-8.4.3-8.4 1.5-10.6l-18 10.2-2.3 1.4-2.2 1.3-2 1.1c-1.5.9-1.5.9-2.5 2-3.5 26.8-7.2 61.5-7.5 64.7-.2 1.9-.5 3.2-4.7 3-4 0-4.2-2.2-4.2-3.4a408.2 408.2 0 0 1 2.2-34.1l2.2-24.2-2.3 1.6c-15.3 9-24.7 12.8-31.7 18.4-2.4 6.4-.3 29.6-3 31.5-1.7 1.3-5.2 1.1-6-.5-2-4 0-26 0-26l-4.9 2.8-6.4 3.8a19455 19455 0 0 1-12.7 7.4l-3.1 1.8-3 1.6-2.5 1.5c-3.8 1.7-7.9 2.6-11.4 1-2-.8-3.6-2.8-4-5-.7-3 .3-6.7 2.2-9.4 4-5.6 11.2-7.8 17.3-11.1l6-3.4 2.9-1.6c3.2-1.8 8.3-3.6 9.6-5.4-.3-1.1-7.2-4.8-11-6.3a26 26 0 0 1-9.7-6.3c-1.1-1-1.4-2.3.7-4.4 2.1-2.2 6 .3 9.3 2.3 2.8 1.6 5.4 3 8.4 4.3 3.3 1.4 3.3 1.4 6.4 3.1 3.4 1.5 4.4 1.3 7.9.3l5.2-2.8 3-1.7 3.1-1.8 3.1-1.8 8.6-5 7-4v-2l-10.4-5-3.2-1.4c-6.4-3.1-12.8-6-19.3-8.8-13.6-6-14.2-5.5-17.1-9.7-1.5-2.2-1.5-2.6-1-5 .4-2.1.8-2.4 3-3 4.6-1.3 8.1 1.3 12.2 3.5l4.3 2.2 2.2 1.1a511 511 0 0 0 10.9 5.4l2.1 1a6755.8 6755.8 0 0 0 15.1 7.4l2 1 5.2 2.4 2.5 1.3c4.2 1.2 7.3.2 11.2-1.6l2.7-1.7 3-1.7 3-1.9 3-1.9 7.6-4.5c-2.6-2-5-3.6-8.1-4.9l-2.3-1-4.7-2c-2.1-1-4.4-1.4-6-3.1-3.3-3.7-1.2-7.7 3-7 2.8.4 2.6.9 5.5 2.5l3.2 1.7 3.4 1.8 6.8 3.4 3.2 1.6c4.3 1.4 7.5.7 11.7-1.3l2.7-1.6 3-1.8 3.1-1.9 3.3-1.9 9.2-5.5 2.3-1.5c6.2-3.3 6.2-3.3 11.7-7.5l-2-1.2-9.6-5.3-3.4-1.9c-7.5-4.2-14.9-8.5-22.1-13a17.5 17.5 0 0 0-8-2.6c-2.8 1-2.8 1-5.7 2.6l-3.4 1.7-6.8 3.5-3.3 1.7-3 1.6c-2.6 1.3-3.5 1.2-5 .6-.8-.3-1.5-1-1.7-1.7a6 6 0 0 1 1-5c1-1.5 2-1.5 4.7-2.7l2.8-1.3 3-1.3 3-1.4 7.5-3.3c-4.6-4-9.6-7-14.8-10l-2.6-1.6c-4.7-2.7-4.7-2.7-10-3.2-2.4.7-4.4 1.7-6.6 2.8l-3.6 1.7-3.6 1.8c-7.5 4-15.2 7.4-23 10.9-5.3 2.4-9.3 4.5-14.5 7.2-2.8 1.3-6.7 3-9.3 1.4-2.1-1.3-2.5-2.1-2-5 .8-5 4.4-6.1 8.9-8.1l3.6-1.6a18240.6 18240.6 0 0 1 13.3-6c5.6-2.5 11-5.2 16.4-8 3.2-1.5 6.5-3 9.8-4.3-3.6-3-7.2-5.4-11.4-7.7l-1.7-1-5.6-3-3.8-2.1c-5.7-3.2-5.7-3.2-11.5-6.2-2.4.8-2.4.8-5 2.2l-3.1 1.5-3.2 1.6-6.3 3-2.8 1.4-2.6 1.3-2.7 1.3s-1.5.8-2.3.7c-1.2-.2-2.1 0-3-2-1.2-2.6-1.3-3 1-5 1.8-1.7 2-1.5 4.6-2.7L96 122l3-1.3 5.8-2.6 2.6-1.2c2-.8 2-.8 3-2l-2.2-1.2-8.3-4.8-3.6-2C73.3 93.7 73 93.8 71.9 89c-.8-3.2-1.4-5.8.7-8.3 2.5-3 4.8-4 8.9-2.8 7.2 2.2 13.6 6 20 10l5 3 2.5 1.5c3.8 2.3 7.6 4.4 11.5 6.5l-.5-3.4c-.6-4.7-.6-9.4-.6-14.1V73c0-2 4.3-5 6.2-.6 4.4 10 2 20.6 1.9 31.6l2 .7c3.6 1.6 7 3.5 10.4 5.4l1.9 1 6.7 3.9 3.6 2 10.4 6-.3-2.9c-2.8-31.5-2.8-31.5-3.6-45.1l-.2-2.7c-.3-5.9-.5-6 1.4-8 1.5-1.5 1.7-1.6 4.2-1.6s3-.1 4.5 2.3c1.6 2.6 1.2 5.8 1.4 8.8l.3 3 .2 3.1.3 3.3a7313.1 7313.1 0 0 1 2.9 38.8c.1 6 .1 6 3.4 10.6l3.3 1.7 1.7 1a198 198 0 0 0 9.3 4.9l9.2 4.8-.2-2.3-.5-10.1-.1-3.6-.2-3.4-.2-3.1a4 4 0 0 1 8-.6c1.7 6.3.6 9 .7 15.4.3 7 .3 7 2.5 13.7 3.4 2.4 7.2 4.1 11 6l5.6 3.2 2.8 1.7 2.8 1.6 2.8 1.7c6.2 2.8 9.7 5.6 17.2 8.5.6-6.3.8-42.6-.6-44.7 0 0-18-9.3-20-13.5-2-3.9.7-7.1 4.8-5.4 6 2.4 10.6 7.4 16.1 10.6l-1.5-32c-16.5-10.7-48-32-49-33.5-3.8-5.3.4-10 6.8-7 4.1 2.5 28 18 44 27.7.7-12.8.1-26 .2-39L230 21.6c-2.3-1.5-.3-5.1 3.4-4.7 2 .2 18.7 12.8 19.8 11.8V3c0-2.7.5-2.7 3.2-2.9 1.4 0 0 0 0 0z"/></svg>